<?xml version="1.0" encoding="utf-8"?>
<!-- Generator: Adobe Illustrator 16.0.0, SVG Export Plug-In . SVG Version: 6.00 Build 0)  -->
<!DOCTYPE svg PUBLIC "-//W3C//DTD SVG 1.1//EN" "http://www.w3.org/Graphics/SVG/1.1/DTD/svg11.dtd">
<svg version="1.1" id="Untitled-Page_x25_201" xmlns="http://www.w3.org/2000/svg" xmlns:xlink="http://www.w3.org/1999/xlink"
	 x="0px" y="0px" width="85px" height="84px" viewBox="0 0 85 84" enable-background="new 0 0 85 84" xml:space="preserve">
<path fill="none" d="z"/>
<g>
	<g opacity="0.9">
		<path fill="#222222" d="M16.272,30.979L13.51,65.327h12.972l-2.76-34.348H16.272z"/>
		<path fill="#222222" d="M61.681,30.979l-2.76,34.348h12.97l-2.76-34.348H61.681z"/>
		<path fill="#222222" d="M8.793,68.764h67.816v6.868H8.793V68.764z"/>
		<path fill="#222222" d="M5.401,77.35h74.6v3.437h-74.6V77.35z"/>
		<path fill="#222222" d="M32.969,30.108l5.607,5.845l-2.36,29.374h12.972l-2.364-29.374l5.607-5.845v-2.569h25.951v-5.733
			L42.701,3.495L7.022,21.806v5.733h25.95v2.569H32.969z M49.185,28.67l-6.484,6.764l-6.484-6.764v-9.72h12.972v9.72H49.185z"/>
	</g>
</g>
</svg>
