<?xml version="1.0" standalone="no"?>
<!-- Generator: Adobe Fireworks 10, Export SVG Extension by Aaron Beall (http://fireworks.abeall.com) . Version: 0.6.1  -->
<!DOCTYPE svg PUBLIC "-//W3C//DTD SVG 1.1//EN" "http://www.w3.org/Graphics/SVG/1.1/DTD/svg11.dtd">
<svg id="Untitled-Page%201" viewBox="0 0 85 84" style="background-color:transparent" version="1.1"
	xmlns="http://www.w3.org/2000/svg" xmlns:xlink="http://www.w3.org/1999/xlink" xml:space="preserve"
	x="0px" y="0px" width="85px" height="84px"
>
	<g>
		<g opacity="1">
			<path d="M 30.1315 34.8617 L 28.8506 49.8424 L 34.8648 49.8424 L 33.5852 34.8617 L 30.1315 34.8617 Z" fill="#ffffff"/>
			<path d="M 51.184 34.8617 L 49.9039 49.8424 L 55.918 49.8424 L 54.6377 34.8617 L 51.184 34.8617 Z" fill="#ffffff"/>
			<path d="M 26.6636 51.3409 L 58.105 51.3409 L 58.105 54.3366 L 26.6636 54.3366 L 26.6636 51.3409 Z" fill="#ffffff"/>
			<path d="M 25.0909 55.0852 L 59.6777 55.0852 L 59.6777 56.5837 L 25.0909 56.5837 L 25.0909 55.0852 Z" fill="#ffffff"/>
			<path d="M 37.8725 34.4819 L 40.472 37.0314 L 39.3778 49.8424 L 45.3926 49.8424 L 44.296 37.0314 L 46.8955 34.4819 L 46.8955 33.362 L 58.9274 33.362 L 58.9274 30.8613 L 42.3843 22.8756 L 25.8423 30.8613 L 25.8423 33.362 L 37.8737 33.362 L 37.8737 34.4819 L 37.8725 34.4819 ZM 45.3901 33.8551 L 42.3843 36.8046 L 39.3778 33.8551 L 39.3778 29.6164 L 45.3926 29.6164 L 45.3926 33.8551 L 45.3901 33.8551 Z" fill="#ffffff"/>
		</g>
		<g opacity="0.9">
			<path d="M 53.3225 71.5909 C 53.2137 71.6298 53.1634 71.7712 53.2084 71.9036 C 53.2557 72.036 53.3833 72.1123 53.4937 72.0704 C 56.6641 70.9924 59.6529 69.3726 62.2949 67.313 L 61.8536 67.0048 C 59.2806 68.9776 56.3939 70.5517 53.3225 71.5909 Z" fill="#ffffff"/>
			<path d="M 55.6125 74.7016 C 55.4902 74.745 55.4324 74.8879 55.4834 75.0188 C 55.5337 75.1513 55.6741 75.2216 55.7987 75.1767 C 56.938 74.8198 57.9686 74.2064 59.0524 73.7216 C 58.9429 73.6909 58.8753 73.6707 58.8566 73.6655 L 58.7552 73.5802 L 58.7469 73.4478 C 58.7522 73.432 58.7777 73.367 58.8182 73.266 C 57.751 73.7448 56.7361 74.3515 55.6125 74.7016 Z" fill="#ffffff"/>
			<path d="M 55.629 80.6179 C 55.4894 80.6688 55.4129 80.8132 55.4549 80.9471 C 55.4985 81.078 55.6456 81.1424 55.7874 81.0922 C 59.9622 79.783 63.8367 77.6463 67.3577 75.1026 L 67.1587 74.6253 C 63.6565 77.1765 59.7941 79.3139 55.629 80.6179 Z" fill="#ffffff"/>
			<path d="M 55.7814 76.8862 C 55.8302 77.0171 55.9743 77.0845 56.1049 77.0381 C 58.3447 76.2091 60.5146 75.1617 62.5321 73.8854 L 61.374 73.9902 C 59.6282 74.9732 57.8245 75.9024 55.9233 76.56 C 55.7949 76.6079 55.7319 76.7523 55.7814 76.8862 Z" fill="#ffffff"/>
			<path d="M 60.4185 65.7651 C 57.8801 67.5831 55.1127 69.1452 52.1148 70.0647 C 52.015 70.1028 51.9677 70.239 52.0105 70.3699 C 52.0533 70.5008 52.1711 70.5771 52.2732 70.5397 C 55.3491 69.5956 58.1885 67.9931 60.7855 66.1182 L 60.4658 65.8115 L 60.4185 65.7651 Z" fill="#ffffff"/>
			<path d="M 60.3134 70.2943 C 58.5226 71.433 56.5936 72.3622 54.6052 73.0954 C 54.4904 73.138 54.4371 73.2787 54.4852 73.4111 C 54.5339 73.5428 54.6683 73.6146 54.7869 73.5727 C 56.5245 72.9757 58.1713 72.1198 59.7685 71.222 L 60.3134 70.2943 Z" fill="#ffffff"/>
			<path d="M 55.9825 79.0543 C 59.8451 77.7361 63.4771 75.7617 66.7039 73.2817 L 66.5627 72.749 C 63.339 75.2657 59.6867 77.2431 55.8129 78.574 C 55.6779 78.6226 55.6066 78.7715 55.6538 78.9039 C 55.6989 79.0371 55.8467 79.1052 55.9825 79.0543 Z" fill="#ffffff"/>
			<path d="M 62.1298 68.8953 C 60.6805 69.9495 59.7355 72.541 59.4382 73.2517 C 60.1265 73.435 63.0598 73.8585 64.7892 72.6113 C 66.5725 71.3343 67.0484 69.7445 66.1041 68.6836 C 65.2027 67.6729 63.673 67.7933 62.1298 68.8953 Z" fill="#ffffff"/>
			<path d="M 69.201 66.4325 C 68.8933 66.419 68.6089 66.4721 68.3514 66.5933 C 68.467 66.333 68.5007 66.0374 68.4354 65.718 C 68.3664 65.3117 68.1653 64.9691 67.8621 64.6915 C 67.2353 64.1185 66.1732 63.826 64.9536 63.8387 C 63.0974 63.7594 61.4431 65.1187 60.9447 65.3753 C 61.4453 65.8489 63.6025 67.8173 65.4489 67.8262 C 66.2745 67.8487 66.9711 67.6953 67.495 67.4222 C 67.188 67.9198 66.9658 68.5931 66.8615 69.4467 C 66.6596 71.4136 67.7142 73.8921 68.0519 74.5842 C 68.6914 74.1966 70.8868 72.0106 71.1421 70.0033 C 71.2584 68.5489 70.9064 67.4776 70.2804 66.9045 C 69.9772 66.6285 69.6116 66.4669 69.201 66.4325 Z" fill="#ffffff"/>
			<path d="M 73.7661 62.5728 C 73.4261 62.3431 73.0358 62.2347 72.6132 62.2526 C 72.2822 62.2661 72 62.3544 71.7606 62.5115 C 71.8401 62.2362 71.8386 61.9466 71.7515 61.6586 C 71.6322 61.274 71.389 60.9673 71.0468 60.7391 C 70.3434 60.2648 69.2273 60.1159 67.9791 60.276 C 66.2445 60.5603 64.6586 62.0177 64.2817 62.4179 C 64.8717 62.8332 67.185 64.3639 69.0967 64.1738 C 69.9329 64.09 70.5874 63.8274 71.0535 63.4706 C 70.8344 64.019 70.7277 64.726 70.7322 65.5714 C 70.7405 67.4731 72.262 69.8709 72.6718 70.4829 C 73.1678 69.9337 75.1689 67.5786 75.0128 65.4651 C 74.955 64.0392 74.4702 63.0479 73.7661 62.5728 Z" fill="#ffffff"/>
			<path d="M 76.5035 57.7338 C 76.1334 57.5588 75.7341 57.5094 75.3303 57.5962 C 75.0286 57.6688 74.7741 57.8049 74.5654 57.9979 C 74.5978 57.7137 74.5422 57.4211 74.3898 57.1346 C 74.2059 56.768 73.9139 56.4994 73.5424 56.3221 C 72.7745 55.9578 71.6705 55.984 70.5003 56.3475 C 68.7192 56.8159 67.5348 58.598 67.1324 58.987 C 67.7734 59.3102 70.3652 60.5364 72.1478 60.0187 C 72.9585 59.8077 73.5807 59.4583 73.9988 59.0446 C 73.8539 59.6117 73.8389 60.3179 73.9733 61.1581 C 74.3411 63.089 76.1214 65.1861 76.6235 65.7337 C 77.1204 65.1801 78.5863 62.4426 78.2253 60.4414 C 77.9183 59.0191 77.2706 58.0989 76.5035 57.7338 Z" fill="#ffffff"/>
			<path d="M 78.5593 52.5702 C 78.1622 52.4498 77.7825 52.467 77.3756 52.6061 C 77.0649 52.7146 76.818 52.8829 76.6348 53.1014 C 76.631 52.8186 76.5463 52.5418 76.3766 52.2896 C 76.1589 51.9612 75.8091 51.7315 75.4196 51.6133 C 74.6233 51.3717 73.5101 51.555 72.3572 52.0697 C 70.7705 52.841 69.7137 54.7054 69.445 55.1849 C 70.1333 55.4116 72.7971 56.2054 74.5797 55.4722 C 75.3393 55.1415 75.8857 54.6979 76.228 54.2213 C 76.1785 54.8079 76.2858 55.5156 76.5552 56.3303 C 77.1092 58.1423 79.2618 59.9895 79.8338 60.4563 C 80.1738 59.798 81.3672 56.9453 80.6077 54.9725 C 80.1415 53.6288 79.3895 52.8231 78.5593 52.5702 Z" fill="#ffffff"/>
			<path d="M 79.7497 47.1432 C 79.3436 47.0826 78.9489 47.1522 78.587 47.3549 C 78.3206 47.5128 78.1172 47.7185 77.9769 47.9639 C 77.9221 47.6826 77.7802 47.4178 77.552 47.1911 C 77.2683 46.8933 76.9095 46.722 76.5027 46.6629 C 75.6605 46.5372 74.6127 46.8888 73.601 47.5794 C 72.0488 48.5519 71.4265 50.5951 71.1721 51.0866 C 71.8964 51.2131 74.7013 51.6201 76.261 50.6033 C 76.9823 50.1649 77.4747 49.6502 77.7479 49.1303 C 77.7787 49.7168 77.9731 50.3946 78.3424 51.1585 C 79.2543 52.8934 81.6082 54.3859 82.2319 54.7593 C 82.5306 54.0814 83.1409 51.0335 82.1936 49.2253 C 81.4791 47.9557 80.5896 47.2666 79.7497 47.1432 Z" fill="#ffffff"/>
			<path d="M 80.2023 41.6092 C 79.7933 41.6092 79.4059 41.7349 79.0667 41.9885 C 78.8025 42.183 78.6171 42.4135 78.506 42.6776 C 78.4175 42.4053 78.2553 42.1666 78.0189 41.9773 C 77.7059 41.7259 77.3321 41.6092 76.9208 41.6092 C 76.0696 41.6092 75.0601 42.109 74.1144 42.9402 C 72.8309 44.1492 72.3655 46.2424 72.2507 46.7781 C 72.975 46.7938 75.7559 46.7684 77.245 45.5452 C 77.8726 45.008 78.2643 44.423 78.4497 43.8679 C 78.5766 44.4417 78.8873 45.0881 79.3857 45.7868 C 80.4493 47.3549 83.0515 48.4899 83.7354 48.7667 C 83.8659 48.038 84.1684 44.9646 82.8564 43.3045 C 82.009 42.1591 81.0535 41.607 80.2023 41.6092 Z" fill="#ffffff"/>
			<path d="M 24.176 68.2123 L 24.3381 67.6953 C 21.6405 65.8796 19.3362 63.5349 17.3307 61.0017 C 17.2616 60.9082 17.113 60.903 17.0019 60.9868 C 16.8885 61.0728 16.854 61.2179 16.9254 61.313 C 18.9902 63.9382 21.3981 66.3285 24.176 68.2123 Z" fill="#ffffff"/>
			<path d="M 14.7119 64.1245 C 14.6023 64.2135 14.5768 64.3698 14.6556 64.4753 L 17.0499 67.114 C 17.0447 67.0003 17.0439 66.927 17.0439 66.9105 L 17.0957 66.7856 L 17.2188 66.7377 C 17.2354 66.7392 17.3036 66.7422 17.4109 66.7512 L 15.0511 64.1514 C 14.9731 64.0489 14.823 64.0362 14.7119 64.1245 Z" fill="#ffffff"/>
			<path d="M 9.4481 65.9724 C 9.3595 65.8556 9.1981 65.8265 9.0863 65.908 C 8.9737 65.9903 8.955 66.1512 9.0449 66.2701 C 11.618 69.7744 14.7336 72.8979 18.3071 75.3967 L 18.699 75.0652 C 15.1262 72.5829 12.0203 69.4647 9.4481 65.9724 Z" fill="#ffffff"/>
			<path d="M 13.0306 64.9781 C 12.921 65.0656 12.8977 65.225 12.9811 65.3349 C 14.4957 67.1813 16.1582 68.9013 17.9754 70.4559 L 17.537 69.3696 C 16.0037 68.0671 14.6796 66.5432 13.3804 65.0162 C 13.2993 64.907 13.1432 64.8913 13.0306 64.9781 Z" fill="#ffffff"/>
			<path d="M 25.0549 66.0023 L 25.0849 65.9439 C 22.5104 64.1544 20.2707 61.8965 18.4249 59.373 C 18.3612 59.2877 18.2171 59.2847 18.1052 59.3648 C 17.9941 59.4456 17.9551 59.5833 18.022 59.67 C 19.9186 62.2526 22.2139 64.5741 24.8605 66.401 L 25.0549 66.0023 Z" fill="#ffffff"/>
			<path d="M 15.9443 62.6753 C 15.8355 62.7621 15.8055 62.914 15.8798 63.0135 C 17.0717 64.4072 18.2779 65.807 19.6837 66.9951 L 20.7188 67.2449 C 19.1058 65.8639 17.6271 64.3332 16.2791 62.6948 C 16.2056 62.596 16.0554 62.5885 15.9443 62.6753 Z" fill="#ffffff"/>
			<path d="M 11.0806 65.4718 C 10.9664 65.5571 10.9462 65.7195 11.0341 65.8354 C 13.5432 69.0263 16.4592 71.935 19.8353 74.2266 L 20.2969 73.9333 C 16.9119 71.6268 13.9538 68.7375 11.4386 65.5242 C 11.3538 65.4098 11.1924 65.3873 11.0806 65.4718 Z" fill="#ffffff"/>
			<path d="M 24.0588 72.2193 C 24.7854 70.9909 24.1122 69.7056 22.632 68.519 C 21.1346 67.5165 18.4468 67.3362 17.6444 67.3063 C 17.7157 67.9826 18.1345 70.9744 19.9036 72.1834 C 21.6232 73.5458 23.3766 73.3797 24.0588 72.2193 Z" fill="#ffffff"/>
			<path d="M 27.0349 75.6465 C 27.2053 75.2732 27.2473 74.873 27.155 74.469 C 27.0829 74.1577 26.9456 73.9004 26.7482 73.6976 C 27.0349 73.7231 27.3239 73.667 27.6016 73.5241 C 27.9648 73.337 28.2283 73.043 28.4002 72.6704 C 28.7529 71.8991 28.7102 70.7911 28.335 69.6165 C 27.7817 67.9422 26.0629 66.6382 25.6088 66.3374 C 25.2763 67.013 24.1512 69.5193 24.6736 71.3358 C 24.8882 72.1565 25.2515 72.7647 25.6801 73.165 C 25.1029 73.04 24.3914 73.043 23.5597 73.1739 C 21.6592 73.5271 19.5246 75.4318 19.0029 75.9121 C 19.6252 76.3041 22.3063 77.8723 24.3583 77.3852 C 25.7732 77.0695 26.6807 76.4164 27.0349 75.6465 Z" fill="#ffffff"/>
			<path d="M 32.2582 77.5767 C 32.3708 77.184 32.3521 76.7882 32.1974 76.4111 C 32.0765 76.1238 31.9017 75.8882 31.6795 75.7086 C 31.964 75.7004 32.2417 75.6054 32.4969 75.4109 C 32.8309 75.1617 33.0493 74.8266 33.1642 74.4323 C 33.4044 73.5966 33.1664 72.6053 32.6439 71.4211 C 31.8574 69.8088 29.9404 68.8654 29.4773 68.5557 C 29.2642 69.2365 28.4971 71.9425 29.2694 73.6894 C 29.6259 74.4129 30.077 74.959 30.5574 75.3031 C 29.9712 75.253 29.2664 75.3615 28.443 75.6712 C 26.6281 76.2742 24.8282 78.4124 24.3673 78.9975 C 25.0106 79.3753 27.9236 80.4406 29.8737 79.6947 C 31.2014 79.2496 32.0308 78.3713 32.2582 77.5767 Z" fill="#ffffff"/>
			<path d="M 37.7164 78.7004 C 37.769 78.2942 37.6924 77.9007 37.4838 77.5386 C 37.3231 77.2588 37.1152 77.0545 36.8668 76.9191 C 37.149 76.8593 37.4094 76.7209 37.6316 76.5047 C 37.9236 76.2204 38.0895 75.8635 38.1428 75.455 C 38.2523 74.6156 37.8846 73.5682 37.1768 72.5545 C 36.147 71.1457 34.1399 70.346 33.604 70.2345 C 33.4891 70.9609 33.1559 73.6819 34.1865 75.2747 C 34.6331 76.0004 35.1607 76.4732 35.6884 76.7283 C 35.0999 76.78 34.4199 76.9932 33.6656 77.3583 C 31.9557 78.2403 30.4741 80.6942 30.1123 81.3197 C 30.8351 81.473 33.8494 82.2429 35.6726 81.1453 C 36.9313 80.4294 37.6061 79.5398 37.7164 78.7004 Z" fill="#ffffff"/>
			<path d="M 43.2753 79.0244 C 43.267 78.6152 43.1334 78.2433 42.8752 77.9306 C 42.6741 77.683 42.4398 77.5042 42.1741 77.3957 C 42.4451 77.3059 42.6808 77.1368 42.8684 76.8862 C 43.1161 76.5473 43.2264 76.1635 43.2197 75.7543 C 43.2047 74.8984 42.6868 73.9872 41.8364 73.0146 C 40.6053 71.7106 38.4888 71.3672 37.9567 71.2048 C 37.9529 71.9208 38.0204 74.7316 39.2754 76.1762 C 39.8286 76.7657 40.4215 77.151 40.9807 77.3373 C 40.4072 77.463 39.7648 77.7787 39.069 78.3144 C 37.5138 79.4194 36.4247 81.9915 36.1575 82.685 C 36.8863 82.8608 39.9772 83.0232 41.6172 81.7334 C 42.7543 80.9134 43.2895 79.866 43.2753 79.0244 Z" fill="#ffffff"/>
			<path d="M 48.8213 78.5082 C 48.7537 78.1027 48.5653 77.7488 48.2614 77.466 C 48.0272 77.2543 47.7689 77.1196 47.4905 77.0605 C 47.7434 76.9236 47.9521 76.7134 48.1007 76.4336 C 48.2966 76.0745 48.3514 75.6847 48.2831 75.28 C 48.1428 74.4435 47.486 73.5517 46.5155 72.7954 C 45.1164 71.6904 42.9547 71.5939 42.4091 71.5969 C 42.5119 72.3428 42.993 75.0413 44.4454 76.2533 C 45.0841 76.8114 45.7281 77.1166 46.3068 77.2124 C 45.7581 77.4264 45.1697 77.8229 44.5557 78.3982 C 43.1799 79.7516 42.4849 82.5287 42.3235 83.2147 C 43.0576 83.196 46.1507 82.9746 47.5813 81.4506 C 48.5743 80.3935 48.9609 79.3438 48.8213 78.5082 Z" fill="#ffffff"/>
			<path d="M 53.5372 76.2847 C 53.27 76.0984 52.9915 75.9944 52.7056 75.966 C 52.9382 75.8036 53.1154 75.5755 53.2234 75.2897 C 53.36 74.8924 53.3525 74.4929 53.2264 74.1016 C 52.9652 73.3034 52.1929 72.55 51.0993 71.8767 C 49.5508 71.0088 47.423 71.2505 46.8676 71.2722 C 47.0739 71.9664 47.9521 74.6021 49.5793 75.6533 C 50.2819 76.0625 50.9612 76.2533 51.5496 76.2645 C 51.0377 76.5555 50.5176 77.0485 50.0072 77.757 C 48.8333 79.2331 48.5473 82.0446 48.4926 82.7785 C 49.2349 82.712 52.2537 82.0132 53.4448 80.2798 C 54.2915 79.1546 54.5062 78.0286 54.2397 77.2139 C 54.1136 76.8256 53.8757 76.5084 53.5372 76.2847 Z" fill="#ffffff"/>
			<path d="M 16.2836 23.606 C 16.3549 23.5147 16.3167 23.3741 16.2025 23.2933 C 16.0862 23.2125 15.9346 23.2237 15.8625 23.3172 C 13.9906 26.0958 12.5367 29.1355 11.5399 32.3256 L 12.0706 32.3144 C 13.0598 29.2335 14.4763 26.2986 16.2836 23.606 Z" fill="#ffffff"/>
			<path d="M 12.5277 22.103 C 12.4091 22.0259 12.2567 22.0529 12.1892 22.1658 C 11.6022 23.1953 10.8809 24.1537 10.4141 25.2489 C 10.5168 25.2078 10.5814 25.1823 10.5979 25.1756 L 10.73 25.1861 L 10.8156 25.2871 C 10.8216 25.305 10.8411 25.3739 10.8704 25.4809 C 11.329 24.3998 12.0413 23.4579 12.6193 22.4412 C 12.6868 22.3312 12.6448 22.1793 12.5277 22.103 Z" fill="#ffffff"/>
			<path d="M 9.1298 17.6703 C 9.2169 17.5521 9.1981 17.3927 9.0855 17.3104 C 8.9737 17.2296 8.8115 17.2596 8.7214 17.38 C 6.2018 20.9209 4.1782 24.8315 2.8452 28.9836 L 3.2813 29.253 C 4.6135 25.1113 6.6101 21.2022 9.1298 17.6703 Z" fill="#ffffff"/>
			<path d="M 8.3687 26.3891 C 9.1831 24.5472 10.1633 22.7973 11.2592 21.1087 C 11.329 20.992 11.2915 20.8349 11.1736 20.7564 C 11.0573 20.6786 10.9027 20.7107 10.8306 20.8274 C 9.5239 22.8302 8.416 24.9467 7.4725 27.141 C 7.7277 26.847 8.067 26.6098 8.3687 26.3891 Z" fill="#ffffff"/>
			<path d="M 13.9643 32.4789 C 14.9191 29.5028 16.3872 26.7063 18.1908 24.1552 C 18.2561 24.0691 18.2171 23.9352 18.1052 23.8529 C 17.9941 23.7729 17.8493 23.7758 17.7833 23.8641 C 15.9279 26.4789 14.4424 29.3555 13.4562 32.4064 C 13.6356 32.4281 13.7879 32.4505 13.899 32.4677 L 13.9643 32.4789 Z" fill="#ffffff"/>
			<path d="M 14.3666 23.1429 C 14.4297 23.0389 14.3861 22.89 14.2683 22.8107 C 14.1512 22.7337 14.0026 22.7561 13.9373 22.8631 C 12.9382 24.4073 12.0421 26.0075 11.2982 27.6909 L 11.3831 28.7495 C 12.2245 26.8028 13.2062 24.9227 14.3666 23.1429 Z" fill="#ffffff"/>
			<path d="M 4.886 30.426 C 6.0854 26.5185 7.8635 22.7958 10.1551 19.4097 C 10.2407 19.296 10.2151 19.1374 10.0988 19.0551 C 9.9833 18.975 9.8203 19.005 9.7333 19.1202 C 7.453 22.4935 5.6727 26.1908 4.45 30.0744 L 4.886 30.426 Z" fill="#ffffff"/>
			<path d="M 6.418 29.5058 C 5.7155 31.5759 6.3512 33.171 7.6767 33.4568 C 9.0675 33.762 10.1483 32.7415 10.7585 30.955 C 11.3102 29.25 10.5379 26.6038 10.3998 25.8669 C 9.6942 26.107 7.0837 27.4731 6.418 29.5058 Z" fill="#ffffff"/>
			<path d="M 5.3237 37.3396 C 5.7327 37.3852 6.129 37.3029 6.4922 37.0897 C 6.7805 36.9266 6.9869 36.7164 7.1234 36.4665 C 7.1851 36.7463 7.3217 37.0044 7.5319 37.2199 C 7.817 37.5057 8.1773 37.6635 8.5864 37.7099 C 9.4315 37.8049 10.4846 37.4219 11.5061 36.7014 C 12.891 35.6451 13.6588 33.6356 13.7811 33.1036 C 13.0659 33.0071 10.3097 32.7146 8.7095 33.765 C 7.9904 34.2206 7.5319 34.757 7.2902 35.2882 C 7.2241 34.7017 6.9906 34.0268 6.6094 33.2824 C 5.7139 31.5969 3.2512 30.1702 2.602 29.8141 C 2.4414 30.536 1.7201 33.5458 2.8624 35.3495 C 3.5845 36.5885 4.48 37.2446 5.3237 37.3396 Z" fill="#ffffff"/>
			<path d="M 5.127 42.8863 C 5.5367 42.8736 5.9105 42.7329 6.2235 42.4703 C 6.4495 42.2668 6.6139 42.0297 6.7137 41.7618 C 6.8135 42.0297 6.9959 42.2638 7.2714 42.4456 C 7.6106 42.685 7.9965 42.7898 8.4077 42.7771 C 9.2701 42.7471 10.1851 42.2145 11.0933 41.3519 C 12.4617 40.1092 12.6838 37.9822 12.8617 37.4533 C 12.1705 37.466 9.2506 37.57 7.9221 38.8538 C 7.3329 39.4149 6.9426 40.0119 6.7565 40.5723 C 6.6304 40.003 6.3159 39.3693 5.7755 38.6862 C 4.5415 37.1451 2.0405 36.1149 1.3155 35.8568 C 1.1271 36.5825 1.1031 39.6723 2.3453 41.2823 C 3.237 42.3978 4.29 42.9162 5.127 42.8863 Z" fill="#ffffff"/>
			<path d="M 2.7626 47.2195 C 3.824 48.1943 4.8755 48.5624 5.7117 48.4091 C 6.1147 48.335 6.4697 48.1412 6.7535 47.833 C 6.9794 47.5921 7.1138 47.3325 7.1686 47.0542 C 7.3112 47.3041 7.5205 47.5083 7.7863 47.6542 C 8.1443 47.845 8.5353 47.8921 8.9399 47.818 C 9.7768 47.6632 10.6693 46.9928 11.4281 46.0083 C 12.4264 44.6048 12.6185 42.4404 12.551 41.8988 C 11.8379 42.0132 9.1201 42.5384 7.9048 44.007 C 7.3397 44.6549 7.0537 45.2998 6.9794 45.8788 C 6.7429 45.3357 6.3256 44.7581 5.7552 44.1544 C 4.3966 42.804 1.6202 42.1576 0.8951 42.0087 C 0.9822 42.7411 1.1256 45.8242 2.7626 47.2195 Z" fill="#ffffff"/>
			<path d="M 4.0101 53.0505 C 5.1637 53.869 6.3467 54.0493 7.1325 53.7792 C 7.5198 53.6468 7.8351 53.4029 8.0573 53.0595 C 8.2119 52.7991 8.3011 52.5238 8.3199 52.2395 C 8.4918 52.467 8.7357 52.636 9.0525 52.731 C 9.4473 52.862 9.8466 52.8485 10.2362 52.7146 C 11.0596 52.4318 11.7531 51.6642 12.3986 50.5689 C 13.3098 48.9926 12.9457 46.8933 12.9495 46.3352 C 12.28 46.5492 9.5651 47.4858 8.6194 49.1078 C 8.2283 49.8133 8.0309 50.4986 8.0167 51.0881 C 7.7292 50.5794 7.2429 50.0639 6.5163 49.5709 C 4.9333 48.4435 2.1929 48.1913 1.4363 48.1517 C 1.4791 48.8961 2.316 51.8759 4.0101 53.0505 Z" fill="#ffffff"/>
			<path d="M 9.322 58.8882 C 9.686 58.6982 9.9675 58.4087 10.1469 58.0309 C 10.2925 57.7353 10.345 57.4466 10.3149 57.1653 C 10.5251 57.362 10.7841 57.4967 11.082 57.5573 C 11.4799 57.6343 11.8679 57.5648 12.2319 57.3755 C 12.9855 56.9835 13.6415 56.079 14.0784 54.9156 C 14.6204 53.2757 14.1632 51.1659 13.9365 50.6684 C 13.2896 50.9856 10.8464 52.2792 10.1206 54.0366 C 9.7731 54.8191 9.6912 55.5209 9.7896 56.0947 C 9.4045 55.645 8.8356 55.2164 8.1098 54.8064 C 6.4089 53.9131 3.562 54.1046 2.8234 54.1727 C 3.1237 54.8475 4.182 57.7623 6.1545 58.6144 C 7.4553 59.2369 8.5676 59.2803 9.322 58.8882 Z" fill="#ffffff"/>
			<path d="M 12.2687 63.6 C 12.5997 63.3576 12.8302 63.0344 12.9442 62.6409 C 13.0186 62.3446 13.0208 62.0559 12.9525 61.779 C 13.1852 61.9451 13.4681 62.0349 13.7985 62.0334 C 14.212 62.0439 14.5903 61.9145 14.9228 61.6743 C 15.6201 61.1686 16.0832 60.2124 16.3474 58.9937 C 16.7677 57.2102 15.7875 55.3159 15.6276 54.781 C 15.0527 55.179 12.7228 56.8787 12.3146 58.6997 C 12.1411 59.4935 12.1547 60.205 12.316 60.772 C 11.8896 60.3718 11.272 60.0232 10.4403 59.7568 C 8.5804 59.1531 5.9001 59.7089 5.1615 59.8967 C 5.4219 60.5962 7.1122 63.1908 9.0615 63.823 C 10.4358 64.2479 11.5909 64.0915 12.2687 63.6 Z" fill="#ffffff"/>
			<path d="M 51.6735 11.0747 C 51.7861 11.1016 51.9106 11.0163 51.9512 10.8817 C 51.9925 10.7455 51.9324 10.6131 51.8176 10.5847 C 48.6089 9.5964 45.2305 9.2709 41.8807 9.2896 L 42.0555 9.7909 C 45.3003 9.7984 48.5661 10.1201 51.6735 11.0747 Z" fill="#ffffff"/>
			<path d="M 51.9399 7.0542 C 51.9767 6.9188 51.9024 6.7811 51.7748 6.7482 C 50.6287 6.4258 49.4698 6.1632 48.2854 6.0255 C 48.3567 6.11 48.4001 6.1647 48.4122 6.1789 L 48.4437 6.3083 L 48.3724 6.4213 C 48.3574 6.4303 48.2989 6.4699 48.2058 6.5283 C 49.3738 6.6644 50.5161 6.9233 51.6465 7.2427 C 51.7719 7.2742 51.9024 7.1911 51.9399 7.0542 Z" fill="#ffffff"/>
			<path d="M 55.4549 2.2713 C 55.4985 2.1404 55.4196 1.9938 55.2778 1.9429 C 51.0978 0.6614 46.7422 0.0254 42.3865 0 L 42.2665 0.5042 C 46.61 0.514 50.9589 1.1394 55.127 2.4202 C 55.265 2.4689 55.4121 2.403 55.4549 2.2713 Z" fill="#ffffff"/>
			<path d="M 52.8009 5.3619 C 52.8399 5.2272 52.7626 5.0881 52.6274 5.0537 C 50.3254 4.4006 47.9484 4.028 45.5698 3.835 L 46.5681 4.4073 C 48.5616 4.6983 50.5589 4.9684 52.4932 5.5467 C 52.6252 5.5796 52.7633 5.4981 52.8009 5.3619 Z" fill="#ffffff"/>
			<path d="M 42.4849 11.6156 C 45.6321 11.656 48.7515 12.1101 51.7501 13.0169 C 51.8514 13.0535 51.967 12.978 52.0098 12.847 C 52.0526 12.7154 52.0045 12.5777 51.9024 12.5403 C 48.8273 11.6074 45.623 11.1458 42.3963 11.1203 C 42.4301 11.2939 42.4564 11.4428 42.4758 11.5513 L 42.4849 11.6156 Z" fill="#ffffff"/>
			<path d="M 46.2371 7.5876 L 45.2478 8.0395 C 47.3629 8.2138 49.4758 8.5392 51.5173 9.1221 C 51.6375 9.1542 51.7643 9.0674 51.8019 8.9328 C 51.8401 8.7966 51.7733 8.6627 51.651 8.6313 C 49.8856 8.0979 48.0579 7.8592 46.2371 7.5876 Z" fill="#ffffff"/>
			<path d="M 54.0994 3.7841 C 54.1414 3.6502 54.0611 3.511 53.92 3.4744 C 50.0065 2.2826 45.9053 1.8554 41.8409 1.8733 L 41.6412 2.3933 C 45.7229 2.3454 49.8466 2.7621 53.7759 3.9644 C 53.9132 3.9995 54.0588 3.9202 54.0994 3.7841 Z" fill="#ffffff"/>
			<path d="M 39.6094 5.9499 C 39.743 7.3445 41.0543 8.1308 42.9487 8.0964 C 44.7471 8.1592 47.0394 6.5163 47.6932 6.1931 C 47.2488 5.5624 45.1292 3.6038 42.9908 3.5335 C 40.8021 3.5679 39.4743 4.5853 39.6094 5.9499 Z" fill="#ffffff"/>
			<path d="M 35.1765 4.9048 C 35.2583 5.3058 35.4595 5.6574 35.7739 5.9387 C 36.0179 6.1602 36.282 6.2963 36.5628 6.3494 C 36.3143 6.4909 36.111 6.6981 35.9706 6.9659 C 35.7844 7.322 35.7446 7.7111 35.825 8.1128 C 35.9931 8.944 36.6844 9.8305 37.6864 10.5877 C 39.12 11.5947 41.2779 11.6642 41.8296 11.653 C 41.7013 10.9438 41.1271 8.2325 39.6312 7.0228 C 38.9767 6.5013 38.3259 6.2335 37.7427 6.1632 C 38.2846 5.9253 38.858 5.4951 39.4488 4.8846 C 40.7818 3.5312 41.3823 0.7624 41.5219 0.0382 C 40.7818 0.0726 37.7014 0.3524 36.3234 1.9728 C 35.3604 3.0285 35.0083 4.0751 35.1765 4.9048 Z" fill="#ffffff"/>
			<path d="M 30.5596 7.3579 C 30.8253 7.5143 31.103 7.5958 31.3876 7.6048 C 31.1631 7.7851 30.9987 8.0313 30.9072 8.3447 C 30.7811 8.7368 30.8006 9.1333 30.9417 9.5171 C 31.2322 10.3138 32.0391 11.0635 33.1259 11.6171 C 34.7329 12.5463 36.8218 12.0862 37.3832 12.0974 C 37.1558 11.4271 36.1665 8.7225 34.5325 7.8547 C 33.8097 7.4455 33.1199 7.2584 32.5292 7.2622 C 33.0328 6.9599 33.5402 6.4669 34.0333 5.7644 C 35.1277 4.1245 35.3356 1.4043 35.3626 0.6546 C 34.6165 0.6928 31.6487 1.6407 30.4929 3.3 C 29.713 4.5345 29.5291 5.6469 29.8203 6.443 C 29.9607 6.8275 30.2106 7.1402 30.5596 7.3579 Z" fill="#ffffff"/>
			<path d="M 25.5968 9.4991 C 25.8964 9.6375 26.1882 9.6899 26.4728 9.66 C 26.2769 9.8687 26.1447 10.1246 26.0876 10.4216 C 26.0164 10.8173 26.0914 11.1996 26.2881 11.5602 C 26.6942 12.3046 27.6166 12.9495 28.7988 13.379 C 30.4688 13.9266 32.5435 13.3603 33.0635 13.1867 C 32.7333 12.5448 31.3905 10.1216 29.6057 9.4056 C 28.8266 9.1004 28.124 9.0338 27.546 9.1363 C 27.9927 8.7502 28.4137 8.1727 28.7996 7.4148 C 29.674 5.7285 29.436 2.902 29.3564 2.1711 C 28.6577 2.4217 25.7897 3.5993 24.9506 5.5467 C 24.3426 6.8395 24.3133 7.94 24.7209 8.6859 C 24.916 9.0435 25.2125 9.3218 25.5968 9.4991 Z" fill="#ffffff"/>
			<path d="M 21.0355 12.3884 C 21.3365 12.461 21.6255 12.458 21.8994 12.3817 C 21.7395 12.6203 21.6533 12.9046 21.657 13.2293 C 21.651 13.6386 21.7869 14.0111 22.0338 14.3388 C 22.5457 15.0151 23.5402 15.4977 24.7471 15.7124 C 26.5448 16.1127 28.4197 15.0705 28.9557 14.9111 C 28.5338 14.3276 26.8022 12.0548 24.9775 11.6971 C 24.1617 11.5109 23.4471 11.5348 22.8857 11.7136 C 23.2753 11.2737 23.616 10.6542 23.8848 9.8477 C 24.45 7.9654 23.8337 5.2849 23.6438 4.5681 C 22.9457 4.8322 20.3802 6.5911 19.7798 8.534 C 19.3962 9.9368 19.5449 11.0493 20.0575 11.7256 C 20.3044 12.0533 20.6362 12.2792 21.0355 12.3884 Z" fill="#ffffff"/>
			<path d="M 16.9103 15.8718 C 17.2354 15.9174 17.5311 15.883 17.7968 15.7745 C 17.6669 16.0266 17.6144 16.3094 17.6489 16.6117 C 17.7021 17.0164 17.9011 17.3755 18.1923 17.6613 C 18.7883 18.2449 19.8428 18.5755 21.1158 18.6571 C 22.8872 18.7065 24.6826 17.5274 25.1465 17.2281 C 24.6406 16.7112 22.641 14.784 20.718 14.6156 C 19.8939 14.5648 19.2034 14.7069 18.678 14.971 C 18.9947 14.4727 19.2266 13.7964 19.3617 12.948 C 19.7078 11.0867 18.6509 8.4585 18.3589 7.7836 C 17.7487 8.2071 15.3821 10.1956 15.1389 12.2867 C 14.922 13.6842 15.2343 14.7623 15.852 15.366 C 16.1462 15.6555 16.4975 15.8194 16.9103 15.8718 Z" fill="#ffffff"/>
			<path d="M 13.3998 19.9708 C 13.7158 19.9581 13.9921 19.8713 14.233 19.7194 C 14.1497 19.9948 14.1497 20.2895 14.2413 20.5933 C 14.3524 20.9868 14.5895 21.3032 14.9228 21.5434 C 15.6096 22.0424 16.7069 22.2182 17.9318 22.0798 C 19.7273 21.9055 21.2825 20.4182 21.7103 20.0733 C 21.118 19.6199 18.8363 17.9905 16.9719 18.1656 C 16.1274 18.2179 15.4534 18.4506 14.9723 18.7873 C 15.214 18.2508 15.3536 17.5573 15.3837 16.7142 C 15.3896 14.7623 13.9725 12.3376 13.5988 11.7286 C 13.0479 12.2171 11.0475 14.5887 11.0813 16.6543 C 11.1166 18.102 11.5804 19.1202 12.2679 19.6199 C 12.5997 19.8601 12.984 19.9798 13.3998 19.9708 Z" fill="#ffffff"/>
			<path d="M 74.8057 40.9456 C 74.9482 40.9426 75.0571 40.8439 75.0519 40.7272 C 75.045 37.368 74.305 34.0627 73.2407 30.9093 L 72.8143 31.2303 C 73.8141 34.2917 74.5422 37.4877 74.5399 40.7399 C 74.546 40.8566 74.6668 40.9471 74.8057 40.9456 Z" fill="#ffffff"/>
			<path d="M 78.1089 36.2077 L 77.9806 36.1748 C 77.9656 36.1635 77.9116 36.1194 77.8267 36.0498 C 78.0264 37.2019 78.1863 38.3593 78.2006 39.5324 C 78.2065 39.6618 78.3259 39.7598 78.4678 39.7531 C 78.6088 39.7456 78.7184 39.6334 78.7117 39.5025 C 78.6951 38.3129 78.5345 37.1391 78.3326 35.969 C 78.2726 36.064 78.2328 36.1224 78.223 36.1366 L 78.1089 36.2077 Z" fill="#ffffff"/>
			<path d="M 82.2537 28.519 L 81.7358 28.5602 C 83.0846 32.6854 83.8322 37.0112 83.8764 41.3436 C 83.8824 41.4903 84.001 41.6092 84.1392 41.6092 C 84.278 41.6092 84.3838 41.4888 84.3778 41.3406 C 84.3313 36.9962 83.5912 32.663 82.2537 28.519 Z" fill="#ffffff"/>
			<path d="M 79.3444 33.8465 C 79.6784 35.8216 80.05 37.8027 80.0754 39.8137 C 80.083 39.9491 80.2023 40.0538 80.3442 40.0494 C 80.4846 40.0426 80.5949 39.9274 80.5866 39.7883 C 80.5214 37.4092 80.1431 35.0338 79.5839 32.7206 L 79.3444 33.8465 Z" fill="#ffffff"/>
			<path d="M 71.2569 32.1722 L 71.1984 32.2029 C 72.1411 35.1752 72.6808 38.2755 72.722 41.4147 C 72.728 41.5217 72.8466 41.6092 72.984 41.6092 C 73.1229 41.6092 73.2294 41.5202 73.2242 41.4117 C 73.1844 38.1917 72.6252 35.0114 71.6457 31.9635 L 71.2569 32.1722 Z" fill="#ffffff"/>
			<path d="M 75.4722 33.7089 C 75.9675 35.7618 76.3083 37.8708 76.3616 39.9887 C 76.3683 40.1122 76.4877 40.2057 76.6296 40.2012 C 76.7699 40.1937 76.8795 40.0898 76.8727 39.9656 C 76.8562 38.1236 76.5042 36.3154 76.2085 34.5071 L 75.4722 33.7089 Z" fill="#ffffff"/>
			<path d="M 82.2409 40.7937 C 82.3835 40.7908 82.4916 40.6718 82.4849 40.5259 C 82.4639 36.4605 81.5879 32.4251 80.3022 28.5782 L 79.7474 28.5482 C 81.0715 32.4011 81.9459 36.456 81.9722 40.5409 C 81.9797 40.6823 82.1006 40.7952 82.2409 40.7937 Z" fill="#ffffff"/>
			<path d="M 79.0938 30.1777 C 78.3439 28.121 77.0259 27.1552 75.7529 27.7103 C 74.4791 28.2669 74.0701 29.7744 74.7253 31.5445 C 75.1892 33.272 77.4927 34.9366 77.9949 35.458 C 78.467 34.8446 79.6559 32.2343 79.0938 30.1777 Z" fill="#ffffff"/>
			<path d="M 75.3325 23.2065 C 74.976 23.4093 74.7103 23.704 74.558 24.0796 C 74.4349 24.3729 74.3913 24.6639 74.4221 24.9482 C 74.2142 24.7559 73.9507 24.6287 73.6393 24.5846 C 73.2257 24.5292 72.8331 24.6168 72.4751 24.8173 C 71.7283 25.2392 71.1713 26.1287 70.7217 27.3332 C 70.1686 29.0263 70.8478 31.05 70.9709 31.5909 C 71.6104 31.2497 74.0311 29.8649 74.7351 28.0672 C 74.9895 27.3018 75.0466 26.5986 74.9415 26.0203 C 75.3281 26.4639 75.9142 26.8746 76.7189 27.2278 C 78.4077 28.0784 81.2246 27.7978 81.9572 27.7051 C 81.7523 26.9891 80.447 24.1866 78.5135 23.3659 C 77.245 22.7621 76.0667 22.7928 75.3325 23.2065 Z" fill="#ffffff"/>
			<path d="M 72.2289 18.5935 C 71.9054 18.8449 71.6832 19.18 71.5774 19.5833 C 71.4971 19.8938 71.5009 20.1855 71.5819 20.4564 C 71.3395 20.3015 71.0565 20.2169 70.7443 20.2169 C 70.3359 20.2155 69.9667 20.3568 69.6424 20.6082 C 68.9722 21.1297 68.4985 22.1344 68.2883 23.3516 C 68.0121 25.0888 68.9263 27.0415 69.1973 27.512 C 69.8053 27.0669 71.9557 25.3574 72.3333 23.5035 C 72.5231 22.6768 72.4803 21.9706 72.283 21.4185 C 72.7385 21.7948 73.3728 22.1172 74.1707 22.3813 C 76.0171 22.9424 78.798 22.2264 79.481 22.0409 C 79.1042 21.411 77.4567 18.7835 75.4054 18.2778 C 74.0055 17.9097 72.8984 18.072 72.2289 18.5935 Z" fill="#ffffff"/>
			<path d="M 68.4872 14.4825 C 68.2043 14.7795 68.0377 15.1401 67.9994 15.5463 C 67.9776 15.8531 68.0234 16.1411 68.1398 16.4014 C 67.8823 16.278 67.5896 16.2376 67.269 16.296 C 66.8577 16.3625 66.5095 16.5578 66.2258 16.8556 C 65.6223 17.487 65.3761 18.4753 65.298 19.7606 C 65.2425 21.5629 66.5178 23.2813 66.7849 23.7691 C 67.2871 23.2634 69.2244 21.2052 69.3369 19.3072 C 69.3564 18.5007 69.2101 17.8072 68.9451 17.279 C 69.439 17.5947 70.1138 17.8237 70.9874 17.9269 C 72.8842 18.2194 75.4631 17.1518 76.1432 16.8421 C 75.7484 16.2122 73.652 13.9386 71.5864 13.6969 C 70.1993 13.4882 69.054 13.8862 68.4872 14.4825 Z" fill="#ffffff"/>
			<path d="M 64.1804 10.9587 C 63.9448 11.2939 63.8299 11.6814 63.8442 12.0989 C 63.8524 12.4258 63.9395 12.7056 64.0964 12.9413 C 63.8187 12.8635 63.5259 12.8635 63.2324 12.948 C 62.8429 13.0617 62.5299 13.3012 62.2949 13.6386 C 61.8063 14.3328 61.6434 15.4341 61.7943 16.667 C 62.0706 18.3713 63.4568 20.0389 63.8937 20.3726 C 64.3185 19.7935 65.8857 17.5229 65.7139 15.6316 C 65.6568 14.778 65.4069 14.1189 65.0541 13.6513 C 65.6021 13.8757 66.3068 13.9977 67.1422 14.0246 C 69.0659 14.0321 71.5031 12.5493 72.1261 12.1498 C 71.5436 11.6942 69.2634 9.5964 67.1182 9.7467 C 65.6763 9.7939 64.6691 10.2652 64.1804 10.9587 Z" fill="#ffffff"/>
			<path d="M 59.3895 8.1263 C 59.2056 8.4929 59.1516 8.8871 59.2333 9.2881 C 59.3047 9.5844 59.4352 9.8418 59.6221 10.0565 C 59.34 10.0161 59.0464 10.0647 58.7552 10.2181 C 58.3814 10.3999 58.106 10.6872 57.9221 11.0537 C 57.537 11.8236 57.5693 12.8815 57.8928 14.0874 C 58.3454 15.859 60.0883 17.0972 60.48 17.4975 C 60.8058 16.8795 62.0856 14.3059 61.6119 12.4969 C 61.398 11.7151 61.058 11.0882 60.6519 10.6587 C 61.2156 10.8203 61.9257 10.8473 62.7874 10.6984 C 64.7133 10.3872 66.8405 8.6575 67.408 8.1532 C 66.854 7.6557 64.1587 6.1235 62.1343 6.4587 C 60.721 6.7071 59.7632 7.3804 59.3895 8.1263 Z" fill="#ffffff"/>
			<path d="M 54.2397 6.0038 C 54.1129 6.3928 54.1151 6.7953 54.251 7.1926 C 54.3546 7.5068 54.5197 7.7507 54.7389 7.9325 C 54.4514 7.937 54.1714 8.0208 53.9177 8.1831 C 53.58 8.4046 53.3518 8.7255 53.2257 9.1146 C 52.9637 9.9203 53.1311 11.0268 53.634 12.1662 C 54.3936 13.7253 56.2153 14.8872 56.7181 15.1042 C 56.9568 14.4241 57.7937 11.7922 57.0784 10.0236 C 56.7744 9.2253 56.3406 8.6702 55.8662 8.329 C 56.4577 8.3806 57.1663 8.2871 57.9731 8.0709 C 59.809 7.5278 61.7065 5.4046 62.1846 4.8412 C 61.5023 4.5509 58.6929 3.2357 56.6888 3.9943 C 55.3243 4.4529 54.5009 5.1973 54.2397 6.0038 Z" fill="#ffffff"/>
		</g>
	</g>
</svg>